# This file uses meters as units for non-parametric coordinates.

mtllib rock.mtl
g default
v -16.628798 0.024493 20.134048
v 16.628798 0.024493 20.134048
v -11.471217 54.320977 11.471216
v 11.471217 54.320977 11.471217
v -11.471217 54.320974 -11.471217
v 11.471217 54.320977 -11.471217
v -16.628798 0.024493 -20.134047
v 16.628798 0.024493 -20.134048
v -15.486142 61.739781 0.000000
v 16.185720 37.413391 -17.492056
v 0.000000 -0.000001 -27.180963
v -16.185720 37.413391 -17.492056
v 23.675709 -0.000001 0.000000
v -23.675709 -0.000001 0.000000
v 0.000000 -0.000001 27.180963
v 16.185720 37.413391 17.492056
v 0.000000 61.739781 15.486142
v -16.185720 37.413391 17.492056
v 15.486142 61.739781 0.000000
v 0.000000 61.739781 -15.486142
v 0.000000 37.413391 23.322739
v 0.000000 71.278248 0.000000
v 0.000000 37.413391 -23.322739
v 0.000000 0.021340 0.000000
v 22.016405 37.413391 0.000000
v -22.016405 37.413391 0.000000
vt 0.375000 0.000000
vt 0.375000 1.000000
vt 0.625000 0.000000
vt 0.625000 1.000000
vt 0.375000 0.250000
vt 0.625000 0.250000
vt 0.375000 0.500000
vt 0.125000 0.250000
vt 0.625000 0.500000
vt 0.875000 0.250000
vt 0.375000 0.750000
vt 0.125000 0.000000
vt 0.625000 0.750000
vt 0.875000 0.000000
vt 0.500000 0.125000
vt 0.500000 0.375000
vt 0.500000 0.625000
vt 0.500000 0.875000
vt 0.750000 0.125000
vt 0.250000 0.125000
vt 0.500000 0.000000
vt 0.500000 1.000000
vt 0.625000 0.125000
vt 0.500000 0.250000
vt 0.375000 0.125000
vt 0.625000 0.375000
vt 0.750000 0.250000
vt 0.500000 0.500000
vt 0.375000 0.375000
vt 0.250000 0.250000
vt 0.625000 0.625000
vt 0.875000 0.125000
vt 0.500000 0.750000
vt 0.375000 0.625000
vt 0.125000 0.125000
vt 0.625000 0.875000
vt 0.750000 0.000000
vt 0.375000 0.875000
vt 0.250000 0.000000
vn -0.661720 -0.431557 0.613094
vn 0.000000 -0.439721 0.898134
vn 0.000000 0.173825 0.984777
vn -0.730622 0.144971 0.667214
vn 0.661720 -0.431557 0.613094
vn 0.730622 0.144971 0.667214
vn 0.652854 0.428972 0.624311
vn -0.000000 0.611692 0.791096
vn -0.652854 0.428972 0.624311
vn -0.000000 1.000000 -0.000000
vn -0.805309 0.592856 -0.000000
vn 0.805309 0.592856 0.000000
vn 0.652854 0.428972 -0.624311
vn 0.000000 0.611692 -0.791096
vn -0.652854 0.428972 -0.624312
vn 0.000000 0.173825 -0.984777
vn -0.730622 0.144971 -0.667214
vn 0.730622 0.144971 -0.667214
vn 0.661720 -0.431557 -0.613094
vn 0.000000 -0.439721 -0.898134
vn -0.661720 -0.431557 -0.613094
vn 0.000000 -1.000000 0.000000
vn -0.900287 -0.435297 0.000000
vn 0.900287 -0.435297 0.000000
vn 0.992652 0.121007 0.000000
vn -0.992652 0.121007 0.000000
s 1
g pCube1
usemtl initialShadingGroup
f 1/1/1 15/21/2 21/15/3 18/25/4
f 15/21/2 2/3/5 16/23/6 21/15/3
f 21/15/3 16/23/6 4/6/7 17/24/8
f 18/25/4 21/15/3 17/24/8 3/5/9
f 3/5/9 17/24/8 22/16/10 9/29/11
f 17/24/8 4/6/7 19/26/12 22/16/10
f 22/16/10 19/26/12 6/9/13 20/28/14
f 9/29/11 22/16/10 20/28/14 5/7/15
f 5/7/15 20/28/14 23/17/16 12/34/17
f 20/28/14 6/9/13 10/31/18 23/17/16
f 23/17/16 10/31/18 8/13/19 11/33/20
f 12/34/17 23/17/16 11/33/20 7/11/21
f 7/11/21 11/33/20 24/18/22 14/38/23
f 11/33/20 8/13/19 13/36/24 24/18/22
f 24/18/22 13/36/24 2/4/5 15/22/2
f 14/38/23 24/18/22 15/22/2 1/2/1
f 2/3/5 13/37/24 25/19/25 16/23/6
f 13/37/24 8/14/19 10/32/18 25/19/25
f 25/19/25 10/32/18 6/10/13 19/27/12
f 16/23/6 25/19/25 19/27/12 4/6/7
f 7/12/21 14/39/23 26/20/26 12/35/17
f 14/39/23 1/1/1 18/25/4 26/20/26
f 26/20/26 18/25/4 3/5/9 9/30/11
f 12/35/17 26/20/26 9/30/11 5/8/15
